/* XPM */
static char *result[] = {
/* columns rows colors chars-per-pixel */
"64 64 30 1 ",
"  c #2C2C2C",
". c #8C7B67",
"X c #736352",
"o c #685D4C",
"O c #5E5246",
"+ c #282828",
"@ c #736B52",
"# c #4C4436",
"$ c #202020",
"% c #524A42",
"& c #94846B",
"* c gray11",
"= c #2E2B22",
"- c #313929",
"; c #744C28",
": c #80502C",
"> c #885830",
", c #A86840",
"< c #6C4824",
"1 c #905C34",
"2 c #BC7848",
"3 c #5C4020",
"4 c #D08050",
"5 c #A89A85",
"6 c #543C1C",
"7 c #483818",
"8 c #403018",
"9 c #382C14",
"0 c #28200C",
"q c black",
/* pixels */
"                                                                ",
"..........XooO+  OooX.....................XooO+  OooX...........",
"X@@XoX@@@X..@#$  %oXo@@@.@X@@X@X..@oXo@OOooo@#$  %@@@@o##oOooX@X",
"..X@XoX....@.#$  %%O@@@..@XXoXX@.@.X@@@XX@XoX#$  %..@oo##oOXoo..",
"..ooXX@@@.@@@#$  %o@X@@.@@X@XX@X@.@@XX@&X@oXo#$  %@@.@XXO#X@@@..",
"@.X@@XX.....O#$  %@o@@@@@@XooXoX@.@.&..@XXooO#$  %X@.oo@@ooX@@.&",
"@.@@X@@@@.@.@#$  %..@@XXo@@@XoOXoo@@..@@@oO#O#$  %@@@..@@.@..@.@",
"@X@X@@...@@@@#$  %.@.XoXXo@oXX%XXoX@.@@XoXo#O#$  %o@X@@@.&.@@...",
"*****=====-###$  ###-====************=====-###$  ###-====*******",
"***************  ******************************  ***************",
"+++++++++++++++  ++++++++++++++++++++++++++++++  +++++++++++++++",
" OooX.....................XooO+  ;::>,,,,,,,,,,,,,,,,,,,,,>::;+ ",
" %X@.&@@@@O%@X@X..X@@X@@@ooX@#$  <11>>>1111>>>>12211121,,,1>13$ ",
" %@@.@@XO@@Xoo@@.@X@X@@XX@@@X#$  <,>::1>1>,,,1,1,,,12,,221,,,3$ ",
" %@@@XXX%XXX@@@@.@.XooX@X@X@.#$  <111;<>111,>1112241,22,2,,>13$ ",
" %X@@XXoX@@..X.@@@..X@@@.@.@.#$  <1:;:::>,,,2,,2222211,,,,,,,3$ ",
" %oX@@X@.@.X..@@X@@.X@...@@..#$  <>:;>111112,2,,2,,,>>,,,22,13$ ",
" %@@X@o@@.&....X@X@@@@@..5&@@#$  <>>>>>1,,11,222,,1,11>2111>:3$ ",
" %@@o@.@.@.@.@@..XX@&&&&&....#$  <:;>;3111,112,,,11:1,>>11,1:3$ ",
" ###-====************=====-###$  66678999000000000000999987666$ ",
" ******************************  ****************************** ",
" ++++++++++++++++++++++++++++++  ++++++++++++++++++++++++++++++ ",
"..........XooO+  OooX.....................XooO+  OooX...........",
"@..&.&.&55&&5#$  %.&5&&.&.@@.X.@@@X.o#o#%X@.@#$  %@o@.@@oooX@.@.",
"&&..&&5&&55&&#$  %..&&..@&&&.X@Xo@XXXOoO#oo.@#$  %.@X@.X@X@X@..&",
"..&.&.&55&5.@#$  %......@@..@@@OOoo@@Xoo%%.X.#$  %.XXXXXX@@@@..&",
"&&...&&&&&5&@#$  %.X.&&...XXoo%ooooo@oXX@OX@@#$  %XXo@X.@.@@....",
".&@..@@.&.&.@#$  %..@....@XXO@oooXoXX@XooXX@@#$  %X@..@@.&&.&..&",
"@&.Xo@@.....@#$  %@@@..@oooo%o%oX@oXX..@@@Xo@#$  %@.@@&..&&@...@",
".@@.X@@XX@@@.#$  %...X@.&o@@ooXooX@@@@@XX@@X@#$  %.&&&5.&55.&&&.",
"*****=====-###$  ###-====************=====-###$  ###-====*******",
"***************  ******************************  ***************",
"+++++++++++++++  ++++++++++++++++++++++++++++++  +++++++++++++++",
" ;::>,,,,,,,,,,,,,,,,,,,,,>::;+  OooX.....................XooO+ ",
" <::;>1,1,,,11,1,2,2,,2,,1,>,3$  %....&.&&..&@@..&&&.&.@.@X@X#$ ",
" <:1:<11,111:>>1,22,,222,11113$  %.X..&&.&&....X..&.@@.@@.@@@#$ ",
" <111;>111,,:;:111,,,11,24,:>3$  %@&&5&55.&.@.@@X...@...X@XXX#$ ",
" <1>::3;1111,:>:1,,,1,,,,,,::3$  %@&.&&..&&@X..@%o@o&@@@@@ooo#$ ",
" <>>>>:<>1,,1111112,2,1,22,>:3$  %.@&&.&&@@@oo@X@oX@@@.@@XXoO#$ ",
" <1:<::3;11,,1,1,1>,,111112>>3$  %.@&&..@.@@X%X@XooXoX@@@@..X#$ ",
" <>>:::;3;11,,2,,1,,1,1>1,11:3$  %@@..&.@@@@@OO@@X@X@X@@.@@.@#$ ",
" 66678999000000000000999987666$  ###-====************=====-###$ ",
" ******************************  ****************************** ",
" ++++++++++++++++++++++++++++++  ++++++++++++++++++++++++++++++ ",
"..........XooO+  OooX.....................XooO+  OooX...........",
"@XoX@@oOooOXo#$  %@@XX@.@.@oo@@XXX..@.&.@X@@@#$  %.@..&..5&&.&5.",
"XXoooXooo.XoX#$  %@.@@@@@X@XoX@@@@@...@XOOoXX#$  %@@.&5&&&@&...&",
".XXO@o@@X@.@o#$  %.@.@..&@XXOOo@.X.@....@oXOX#$  %@.@555.&&..@..",
".X.@oX@X@X.@X#$  %.@.@&...XXOo%...@@@..@&.X%X#$  %...5555....@.@",
"@@@ooXX@@X@@.#$  %.&.@.@@@@@oXooXX@X@@.@@@@Xo#$  %&&&.555.@..@@.",
"@.@XoOXX.@@.5#$  %&.@@X@.@@ooo#%%@X@X.&&@.@@o#$  %..&..&&5&@@@.@",
"XX...&@@&&...#$  %@..@@@X@@XoXXooo%@@@.&&....#$  %.X@.@&5&&.@.@.",
"*****=====-###$  ###-====************=====-###$  ###-====*******",
"***************  ******************************  ***************",
"+++++++++++++++  ++++++++++++++++++++++++++++++  +++++++++++++++",
" OooX.....................XooO+  ;::>,,,,,,,,,,,,,,,,,,,,,>::;+ ",
" %@@.@..&...&.@@...@oOXo@@@..#$  <,1,>111222,2,11,,111>:1,,123$ ",
" %@@@.X&&55&@X@@@.@.@oX@@.@&.#$  <:1>>>1112,2,,,1,>111>>>>1,23$ ",
" %XoX.@&&&&&@.XoX@X@.Xo...@&.#$  <;11>1>1>,1,,111>:>>>1>,11,13$ ",
" %O%XO&.&&5&@XoXo@@@@.X@..&&@#$  <11>>::::11,,1>><1:1,11,,1,,3$ ",
" %XOX@@..&&5.@X%OXX.@.@@....@#$  <;>1>;:::::,1,1>;>>:,,,221>:3$ ",
" %XoOX@@..@.@@@XoXX.@..@@.@..#$  <>;:;><:>;:1>,,11:1>12,,1,,:3$ ",
" ###-====************=====-###$  66678999000000000000999987666$ ",
" ******************************  ****************************** "
};
