/* XPM */
static char *RedwallD1670414376[] = {
/* columns rows colors chars-per-pixel */
"64 64 223 2 ",
"   c #010202",
".  c #090503",
"X  c #0B0B05",
"o  c #030309",
"O  c #0A0B0A",
"+  c #06070A",
"@  c #120D0B",
"#  c #0C110C",
"$  c #1E1604",
"%  c #0F1410",
"&  c #161113",
"*  c #1C1614",
"=  c #151814",
"-  c #1B1B13",
";  c #1B1518",
":  c #1C1B1A",
">  c #16101C",
",  c #241A05",
"<  c #2C1B04",
"1  c #241C0C",
"2  c #2C1D0E",
"3  c #331F0A",
"4  c #221415",
"5  c #241D13",
"6  c #2B1D13",
"7  c #231D1B",
"8  c #281F1B",
"9  c #281717",
"0  c #341E14",
"q  c #1B2012",
"w  c #1B231D",
"e  c #172214",
"r  c #1B230B",
"t  c #202206",
"y  c #2D2306",
"u  c #25240B",
"i  c #2B220C",
"p  c #2E2A0E",
"a  c #312107",
"s  c #34230D",
"d  c #3A2D0D",
"f  c #34280E",
"g  c #232114",
"h  c #2C2213",
"j  c #23231C",
"k  c #2B241D",
"l  c #2C281B",
"z  c #202B1D",
"x  c #342413",
"c  c #3A2414",
"v  c #3D2B13",
"b  c #3D2E1A",
"n  c #312818",
"m  c #29321F",
"M  c #3C331B",
"N  c #3B3216",
"B  c #1D1D21",
"V  c #241F23",
"C  c #1E2221",
"Z  c #242424",
"A  c #2B2524",
"S  c #242A24",
"D  c #2C2B24",
"F  c #24252A",
"G  c #2A252A",
"H  c #2B2A2B",
"J  c #27282A",
"K  c #312B24",
"L  c #332C2A",
"P  c #352122",
"I  c #34322B",
"U  c #3A342A",
"Y  c #393527",
"T  c #2C2C31",
"R  c #2F3334",
"E  c #353432",
"W  c #393631",
"Q  c #3D3A33",
"!  c #3E3C3A",
"~  c #540101",
"^  c #5D0100",
"/  c #480701",
"(  c #640100",
")  c #6C0100",
"_  c #6B0900",
"`  c #740101",
"'  c #7C0101",
"]  c #7C010A",
"[  c #76010A",
"{  c #4A300F",
"}  c #412617",
"|  c #412D13",
" . c #46291C",
".. c #423213",
"X. c #4A3313",
"o. c #44321A",
"O. c #4A3A18",
"+. c #543B16",
"@. c #54391A",
"#. c #5B3C1C",
"$. c #513619",
"%. c #58350F",
"&. c #653D1B",
"*. c #633C16",
"=. c #412B20",
"-. c #463C2E",
";. c #463726",
":. c #5C3E23",
">. c #523C24",
",. c #453D33",
"<. c #483B35",
"1. c #3F4534",
"2. c #3F473A",
"3. c #5B421C",
"4. c #58451B",
"5. c #64411A",
"6. c #654A1F",
"7. c #7B431E",
"8. c #49412F",
"9. c #5E4122",
"0. c #5B462A",
"q. c #5E5023",
"w. c #464135",
"e. c #4B4334",
"r. c #44413C",
"t. c #4C443B",
"y. c #4D493C",
"u. c #4B4937",
"i. c #534536",
"p. c #524837",
"a. c #52463B",
"s. c #544A3D",
"d. c #5A4C3E",
"f. c #5D513F",
"g. c #56513E",
"h. c #634424",
"j. c #6C4A24",
"k. c #624528",
"l. c #6A452B",
"z. c #664A2C",
"x. c #6B4C2C",
"c. c #684922",
"v. c #704626",
"b. c #744A24",
"n. c #734D2B",
"m. c #7B4D2B",
"M. c #6F532E",
"N. c #73542C",
"B. c #79522A",
"V. c #684D37",
"C. c #784C34",
"Z. c #7D5835",
"A. c #4B4541",
"S. c #4E4B42",
"D. c #544C43",
"F. c #5B4D43",
"G. c #524D49",
"H. c #565143",
"J. c #5C5144",
"K. c #56514A",
"L. c #5C524A",
"P. c #5F594D",
"I. c #5F5A54",
"U. c #625444",
"Y. c #63554B",
"T. c #645A4C",
"R. c #6A5B4D",
"E. c #685945",
"W. c #705F4E",
"Q. c #655D53",
"!. c #6C5D52",
"~. c #685F58",
"^. c #625F58",
"/. c #755E53",
"(. c #6F604B",
"). c #73614D",
"_. c #6D6254",
"`. c #6D645B",
"'. c #676159",
"]. c #746353",
"[. c #786556",
"{. c #736856",
"}. c #7A6A56",
"|. c #73655A",
" X c #79665C",
".X c #74695B",
"XX c #7B6C5B",
"oX c #7E715D",
"OX c #6F6861",
"+X c #736B62",
"@X c #7A6C61",
"#X c #7C6460",
"$X c #7E7261",
"%X c #79716A",
"&X c #830101",
"*X c #8B0101",
"=X c #880209",
"-X c #860503",
";X c #930101",
":X c #9B0101",
">X c #940209",
",X c #9C0309",
"<X c #A30101",
"1X c #AC0101",
"2X c #A40C04",
"3X c #A20009",
"4X c #AB010A",
"5X c #AD0B09",
"6X c #B30101",
"7X c #BA0101",
"8X c #B80607",
"9X c #AB0C11",
"0X c #C30102",
"qX c #CA0102",
"wX c #CA010A",
"eX c #D20304",
"rX c #87532C",
"tX c #82603B",
"yX c #83705F",
"uX c #807263",
"iX c #897E6A",
"pX c #907F6E",
"aX c #948774",
/* pixels */
"D A A Z D A I g D D k K j K A J F D A D Z A K A k K A D A A L A V L j G H A A D A A A K A D F F T F K A k K A J A L 8 L L V L P ",
"`.+X+XOXOX!..X`.'.'.s.t.D.A.@ H D r.w.y.K.'.'._.+X`.Q..X`.~.OX~..XQ.%X^.`.+X~.+X`.`.D.t.S.,.Z T F 2.D.<.J.`.`.^.`.~.+XQ.~.%XOXOX",
"i.U.s.s.<.<.d.E.L.s..X`.t.D o H H U w.g.e.Y.R.U.[.F.d.U.F.F.U.F.{._.d.8.f.-.J.8.e.H.-.e.K.Y   : L l J.R.U.p.p.Y K e.y.p.-.e.J.a.",
").}.d.d.d.F.d.!.]./.|.U.`.K   F S U Y e.s.U.i.]./.F.d.F.s.s.F.D.R.T._.p.T.U.f.d.e.U.e.p.D.K   I D m `._.U.p.y.6 K e.e.g.e.e.XX).",
")._.t.a.a.D.s.T.E.).i.p.T.I   J R F <.Y.a.Y.!. XY.J.J.D.t.a.D.D.R.R.R.i.e.F.Y.XXG.F.D.A.t.A   H S ! P.D. XF.D.D.,.K t.L.U.R.R.].",
"J.Q.D.D.D.D.J.'.R.yXR.oXe.k   Z F ,.K.D.Y.L.a.L.D.K.L.A.A.S.A.G.F.~.T..XXX_.~.U.D.t.a.<.D.L o Z H H A.D./.s.<.Y.Q.a.t.F.F.F.|.uX",
"T.Q.Y.L.D.a.U.U.d.{.J.R.T.U   L H W `.E.Y.Y.K.S.a.F.J.D.D.D.,.D.D.<.F.J.|.@XL.L.L.y.t.l ,.D X F T E I.Q.L._.|.F.a.R.U..X|.J./.F.",
"F.V.F.s.J.U.[.).+Xd.T.g.L.D   Z J Y _.U.!.F.u.s.t.s.d.s.J.y.U a.a.<.d.d.{.d.F.F.u.y.g.h y.D   S S I A.d.i.Y.U.H.XXXX).d.f.{.[._.",
"        o > 9 * # = - I H D   A D D K D : - = = > + o     o     o . o   X = : B * * j D L S   J H D S D Z : = = *     +     o   ",
"        o       #         . . Z w & +       +                                             O + C Z ; O         o .           .   ",
"B.B.b.N.h.+.4.4.5.%.Z.b.n.m.Z.j.tXx.#.#.#.9.k.3.+.9.9.h.9.3.3.3.>.+.+.9.k.z.z.z.k.9.x.M.+.#.3.X.h.3.+.#.#.:.z.x.m.b.j.c.&.b.x.*.",
"X.{ X.| f y y p v y o.< < v >.| X.v v x s c v c 2 x x x h c c x ;.b x 6 2 6 i x < < a N a f o.a N N p p i y , , d a y y f ..M i ",
"u h 6 2 2 6 6 9 5 j k g 6 n k 6 i 6 h h 5 5 6 6 1 g u , 1 i x 2 < , 1 u u 1 u h j l 1 6 1 $ h 6 u 2 1 1 5 h x 0 6 1 5 g 5 5 7 j ",
"` ' &X;X;X,X>X&X` ' ` ' ' &X' ;X;X*X*X*X&X&X*X*X&X*X*X*X;X;X;X;X:X:X;X*X-X' ' ' &X-X&X;X2X*X;X;X1X6X1X<X<X<X1X1X5X<X:X:X:X;X&X&X",
") ` ' *X*X-X' ` ` ' ` -X-X*X*X;X;X;X*X-X' &X&X&X*X*X*X>X>X:X>X:X;X>X=X[ ) ` ` ` &X&X*X;X:X;X:X:X6X7X6X1X1X1X1X1X1X:X;X;X:X:X*X' ",
"[ ` &X*X*X' ' ` ' &X*X>X:X:X<X:X:X;X,X>X&X*X>X>X:X;X;X<X<X<X<X1X:X:X*X' ' [ ` ` -X*X,X:X4X4X8X4X0X8X8X1X<X1X4X6X1X2X2X:X:X;X*X' ",
"&X&X&X&X&X&X&X&X;X;X:X<X<X<X;X*X&X*X*X;X;X;X;X:X6X<X:X:X;X;X;X:X:X*X' ` ) ` [ *X*X*X:X<X6X6X6X6X6X6X1X:X*X*X;X<X1X1X<X:X-X' ' &X",
"=X=X&X&X&X=X=X*X:X:X<X1X<X:X;X*X' &X*X;X:X:X<X1X1X1X<X:X:X;X:X:X;X*X' ` ) ) ` ' ;X;X:X<X1X4X6X6X4X<X:X;X>X*X*X>X:X<X<X;X&X' ' &X",
"&X&X&X&X&X*X*X;X<X1X1X1X<X:X;X*X&X&X*X;X<X<X1X6X6X6X1X<X:X:X;X:X;X*X' ` ) ) ` ` *X;X;X:X:X<X<X4X:X;X*X*X*X*X&X` &X*X;X;X&X' ' &X",
"*X*X*X*X*X;X;X:X<X1X6X6X1X<X:X;X;X;X:X<X1X6X6X6X7X6X8X1X<X;X;X;X;X*X&X' ` ) ` ` &X&X&X*X*X>X:X:X;X' ' ' *X*X` ^ ` &X*X;X*X&X&X] ",
"*X;X;X:X:X<X<X1X<X1X8X7X7X7X6X1X1X4X6X6X7X6X6X7X7X7X7X1X<X:X;X;X;X*X*X&X' ` ) ) ' ' ` ' &X&X*X*X*X' ` ' *X*X` ^ ) ` -X*X;X>X&X' ",
";X;X<X<X1X6X6X1X1X1X6X7X0X0X0X0X6X6X7X7X7X6X6X7X6X7X7X6X<X:X*X*X;X*X&X=X[ ` ) ) ( ) ` &X&X*X*X*X*X*X' &X*X*X&X) ` ` ' &X:X;X*X&X",
":X:X<X1X6X6X6X6X7X7X0X0X0XqXqX0X1X1X1X6X7X6X7X8X1X6X6X1X<X:X>X*X*X&X&X&X` ) ( ^ ^ ) ' *X;X;X;X;X;X>X;X*X*X>X*X&X` ) ` &X*X:X;X;X",
"<X1X1X6X6X6X7X7XwXqXqXqXqXqX0X7X<X:X<X1X6X8X7X6X1X1X1X<X<X:X=X*X&X&X&X&X` ( ^ ~ ^ ( &X>X<X<X<X<X:X:X:X;X*X*X*X;X' ` ` &X*X:X:X:X",
"6X6X6X6X6X0XqXeXqXqX0X0X7X7X8X1X:X2X1X6X6X8X6X<X<X<X<X:X:X*X' ` ` ' ' ' &X` ( ^ ~ ^ ` -X:X<X1X6X1X<X:X=X*X&X*X;X' [ &X*X;X:X1X1X",
"6X6X1X<X6X6X0X0XqXqX0X7X6X1X1X<X:X:X<X1X1X6X6X<X<X:X;X;X&X' [ ` ) ` ' ' ' ` ) ^ ^ ( ' ;X:X1X6X6X<X:X;X&X&X&X*X*X&X*X*X;X;X:X<X1X",
"6X1X<X<X<X1X6X7X7X7X7X1X1X<X<X;X:X:X:X<X1X1X1X1X:X;X*X' ` ` ` ` ) ) ` ' ' ' ` ) ) ` &X;X<X1X1X6X2X;X*X&X' &X*X*X:X:X:X:X:X<X<X1X",
"1X<X<X:X:X:X<X<X6X6X1X<X:X:X;X;X:X:X;X:X:X:X<X<X,X;X' ` ) ( ) ) ) ` ` ' &X&X&X' [ ' &X*X;X<X<X1X;X;X*X*X*X*X;X;X1X1X<X<X<X<X<X<X",
"1X<X:X:X:X;X:X:X<X<X<X,X;X*X*X*X:X;X:X:X:X:X:X:X*X&X' ) ( ( ) ) ` ' ' &X*X*X*X*X=X&X' &X*X;X:X:X:X:X:X:X:X<X<X1X7X7X6X1X1X<X<X:X",
"<X:X:X:X;X;X*X*X*X*X*X;X*X;X;X*X:X:X:X<X:X:X;X:X;X*X&X` ) ) ) ` [ ' &X&X*X*X;X;X&X&X' ' ' *X*X;X<X<X<X<X1X1X6X8X0X7X7X6X1X<X<X<X",
":X;X;X*X*X&X&X&X' ' &X*X;X;X:X:X:X:X<X<X<X<X:X;X;X;X&X' [ ` ` ` &X' &X&X&X*X*X;X;X*X&X' ' -X*X;X<X1X1X6X6X7X7X0X0X7X7X6X1X<X<X<X",
"*X*X*X-X&X' ' ' ' ' &X&X;X;X:X:X;X:X<X6X1X<X:X;X:X;X*X*X&X' ` ` ' ' &X' &X&X*X*X:X;X&X' ' &X*X;X:X<X6X7X7X0X0X0X0X7X7X6X1X<X<X<X",
":X' ) ( ` ' ' ' *X&X&X&X*X:X1X7X<X1X6X6X7X4X<X;X;X;X;X;X:X;X&X_ &X' ' ' &X*X;X:X<X:X;X*X&X' *X;X<X6X0XqXqXqX0X7X0X7X7X6X6X<X:X:X",
">X&X) ( ) ` &X&X;X;X*X*X*X>X<X1X1X1X1X6X6X6X<X<X:X:X*X;X:X;X&X` ' ' &X&X*X;X<X<X<X<X<X;X*X*X*X:X1X7X0X0X0X7X6X<X1X<X<X:X:X*X*X' ",
"' ' ` ) ( ` &X*X:X:X;X;X*X*X;X<X1X1X1X1X6X6X6X6X<X:X;X*X>X=X' ' ` ' *X>X:X1X1X6X6X1X1X<X:X;X;X:X1X6X8X7X6X<X:X;X;X;X*X*X*X&X' ` ",
"` ' &X` ) _ &X*X;X;X:X;X&X&X&X&X<X<X<X<X1X1X6X7X1X1X;X&X-X-X' ' ` ' *X<X1X6X6X7X6X6X7X1X<X<X:X:X:X<X<X1X<X:X;X*X*X*X*X*X-X=X&X' ",
"` ' &X&X_ ) ` =X&X;X;X;X&X' ' ' :X:X<X<X<X1X6X6X6X1X:X&X' ` ' ' ` ' ;X1X7X7X0X7X6X7X6X1X<X:X;X;X*X*X;X:X:X;X;X*X&X&X' ' ' ' ' ' ",
"&X&X=X' ` ) ( ) ' &X>X;X*X&X' ' ;X:X:X<X<X<X<X1X6X1X;X' ` ) ` ' ' &X;X1X6X7X7X7X6X1X1X<X;X*X*X*X` ` ' &X*X;X;X;X` ` ` ` ) ` ` [ ",
";X*X&X' ` ) ^ ~ ) &X;X:X:X*X*X*X*X;X:X<X<X:X:X;X<X1X,X&X` ) ` [ -X*X;X<X1X6X6X6X1X1X:X;X&X' ' =X` ` ` ' &X&X*X*X' ' ' ` ` ` ' ' ",
"<X;X&X` ` [ ( / ) ' ;X<X<X;X;X;X*X;X:X<X<X:X>X*X:X2X,X&X) ) ` ` ;X*X;X:X<X1X6X1X1X<X:X*X` ) ' ' ` ) ) ' ] &X&X&X;X>X>X*X*X&X*X*X",
"*X-X' ` ` ` ) ( ( ( ` *X<X1X<X;X;X:X:X;X:X:X:X:X*X;X:X*X' ' ' &X&X*X*X:X:X<X<X<X:X:X:X>X&X' ` ` ` ' &X' ` ' *X,X:X:X:X:X:X*X' ` ",
"' ` ) ` ` ' ` ) ^ ( ` &X;X<X1X<X<X:X:X:X,X<X<X<X*X*X*X&X' ' ' ' *X;X:X:X<X:X:X:X;X;X;X*X=X&X' ` ` ' ' ' ` ' *X:X:X<X<X<X:X*X&X` ",
"( ( _ ` ' &X' [ ( ( ( ` =X:X1X6X<X<X:X<X<X<X<X:X;X-X' ' &X&X' ' ;X;X:X1X<X<X;X;X;X*X*X*X*X=X&X&X' ' ' ' ' ' *X:X1X1X1X<X:X;X' [ ",
"( ( ( ` [ &X' [ ) ( ^ ( ' ;X1X7X<X<X:X;X;X:X:X:X:X-X_ ` *X>X&X' &X;X:X1X6X<X:X*X*X*X*X&X*X*X*X*X&X' &X&X&X*X;X:X6X6X6X1X:X;X&X' ",
") ) ` ` ' ' ` ) ) ( ( ( ` *X<X6X<X:X;X*X>X;X;X;X<X*X` ` *X,X>X&X' -X:X1X6X1X<X:X*X&X-X-X&X=X*X>X;X;X*X;X:X<X1X1X7X7X6X6X<X:X*X&X",
"' ' ` ` ' ` ) ( ` ` ) ) ) ' ;X<X2X:X;X*X*X;X;X:X:X;X' ' ' *X>X&X` &X;X<X1X6X1X<X&X' ' ' ' &X;X:X;X;X;X:X1X6X7X7X7X6X6X4X1X:X:X:X",
";X&X' ` ' [ ` ` ` ' ' ' ` ` ' *X:X;X;X*X*X;X:X:X:X;X&X' ` ' -X*X' &X;X:X1X1X<X:X' ' ` ` ' &X;X:X:X;X:X<X6XwXqX0X6X6X6X1X1X<X<X<X",
",X&X` ) ` ' ' ' ` =X*X*X' ` ` [ :X:X:X;X>X:X<X<X:X;X&X` ) ) ` *X-X*X;X<X<X<X:X;X' ' ` ) ` &X*X;X;X;X;X:X7X0XqX0X6X6X6X1X<X<X<X1X",
"<X:X-X` ) ` -X&X' &X*X-X&X' ` ` *X*X:X:X2X:X<X<X<X2X*X[ ) [ ) ] ;X*X*X*X:X:X<X1X:X;X&X` ) ' *X;X;X:X<X1X6X7X0XqX0X7X<X<X;X,X;X;X",
":X:X*X` ` ` &X=X*X*X*X>X*X&X' &X;X:X2X4X4X<X:X,X;X;X-X` ( _ ^ _ [ ` ' ' &X;X;X;X3X>X=X] [ =X*X>X<X<X1X6X6X0XqXeXwX7X8X1X,X:X3X:X",
"*X*X&X' ' ' &X&X<X<X1X1X1X<X<X:X<X:X<X:X;X:X&X*X>X>X*X&X` [ ( ) ` ) ' ' &X,X9X<X:X;X*X&X&X&X*X:X<X:X<X1X1X1X7X6X8X1X2X1X;X*X>X:X",
"3.9.9.k.9.>.@.+.9.0.z.z.l.k.k.z.x.9.9.:.$.0.O.0.*.*.*.5.j.N.4.k.4.4.6.6.5.b.rX7.C.l.:.0.0.k.n.C.j.c.Z.Z.n.n.n.&.h.#.h.x.9.#.k.k.",
"s s c }  . .c x i u 2 x i 6 i h Y x c c 3 ;.x ;.5 6 6 0 c =.6 x d s d ..d ..O.{ c s 3 3 0 0 c  .a < ..;.o.M M s x 3 x b x 2 s x ",
"q g - 5 5 h h 1 6 2 2 6 6 3 2 3 u $ u i 1 x < 0 r u u i u x , h 6 5 7 k - 6 j g u t t u u t 1 u u 2 h l h h l g i 1 1 u y , 1 1 ",
"w z z - q z g - C w w w w w w w Z : Z Z A 8 V 7 7 7 7 w : Z - Z 7 Z A 7 7 j 8 7 w w w j 7 w w B j j 5 5 - q g q V Z : : Z S B C ",
"P <.a.a.D.!. X|.[.].].{.{.).].).]./.]._..XQ.{._. X!.s.u.w.2.S w m 1.u.w.g.'.|.|./.[./././.[.|. X!..X`.`.|.|.]. X~.|.J.e.y.Q j F ",
"C W J.Y.#XF.{.{.XX}.E.).yX).R.s.).[.[.H.e.e.D.y.H.T.d.|.|.k   H S W _.T.`.<.Y.F.U.@XXX}.].].|.F.V.[.).F.T.L.t.y.L.`._.d.XXK . F ",
"R D Q.F.F. Xi.{.XXiXaXoXJ.p.D.Y.U.R.T.R.P.s.w.J.U.T.V.XX.XU   G J L u.p.U.D.L.L.F.Y.].].XX}././.J._.F.F.Y.D.F.D.D.a.E..X@Xl . V ",
"J I A.e.F.!.R.XXoX{.uX].R.`.K.r.y.L.y.T.Q.J.t.'.).].E.[./.D   Z J U y.J.F.D.s.H.F.s._.T.[.].Y.Y.K.D.t.y.D.A.D.t. Xd.d.).T.5   T ",
"C ! ,.;.F.<.|.).XXXXaXXXd.A.D.G.t.L.s.Y.J.!.d.Y.).}.). XR.l   R F W H.L.F.a.e.e.a.p.R.d.!.!.T.s.S.U D.s.D. XY.R.R.].E.).{.U   Z ",
"J W H.,.D.D.T._.].).yXpXXXF.a.L ,.s.F.!.d.].U.i.).[.].{.L.k   Z J W y.u.J.D.D.e.-.8.u.e.(.T.{.J.H.-.K.t.a.|././.oXoXU.e.e.A   S ",
"F E S.y.A.K.t.Y.XX!.U./.Y.D.Q.K.s.t.F.`.L.[. XY.R.Y.Q.`.T.Q . Z T W S.w.D.r.A.Q g.y.w.y.P.d.'.R.K.L.D.s.a.U.XX!.`.P.T.'.y.I O Z ",
"A K z j j : : * & .                   . . @ * * - * g D K z   F Z F m D j ; ; = X             .   .     . @ A * - X Z I D 7 . Z ",
"G - .   +       o   o     o   o           o o                 T T *       o   o     o o   o     o       o               o +   H "
};
