/* XPM */
static char *_7d5fb5b1b31457df16b0b02b634ea3egLUmfry0OuUlWbYQ[] = {
/* columns rows colors chars-per-pixel */
"64 64 9 1 ",
"  c #28200C",
". c #382C14",
"X c #403018",
"o c #483818",
"O c #543C1C",
"+ c #5C4020",
"@ c #6C4824",
"# c #744C28",
"$ c #905C34",
/* pixels */
"X@$O@@@@OOOooooOOO@@@@@@+OOoooooooOO+@@@OOoooooooooOO++@@######+",
"X@$O$$$$$$$$$$$$$$$$$$$$$$$$$$$$$$$$$$$$$$$$$$$$$$$$$$$$$$$$$$$$",
"X@$.OOOOOOOOOOOOOOOOOOOOOOOOOOOOOOOOOOOOOOOOOOOOOOOOOOOOOOOOOOOO",
"X@$                                                             ",
"X@$O$$$$$$$$$$$$$$$$$$$$$$$$$$$$$$$$$$$$$$$$$$$$$$$$$$$$$$$$$$$$",
"X@$.OOOOOOOOOOOOOOOOOOOOOOOOOoOOOOOOOOOOOOOOOOOOOOOOOOOOOOOOOOOO",
"X@$O#############@@@++oooooOO++@@#########@@++OOOooooOOOO@@@+Ooo",
"X@$O####@@++oooooooooooOO++@@#########@@++OOOoooooOO++@@###@+ooo",
"X@$OooooooooOOOO++@@@##########@@++OOOooooooooOOO++@@###@++Ooooo",
"X@$O##################@@++OOOoooooooooooooOOO++@@####@++OOoooooo",
"X@$OoooooooooooooooooooooooooooooOOOO++@@########@@++OOooooooooo",
"X@$O####################################@@++OOOOoooooooooooooooo",
"X@$OoooooooooooooooooooooooooooooooooooooooooooooooooooooooOOO++",
"X@$OoooooooooooooooooooooooooooooooooooooooooooooooooOOOO+@@###+",
"X@$O#####################################################@@++ooo",
"X@$Ooooooooooooooooooooooooooooooooooooooooooooooooooooooooooo++",
"X@$O$$$$$$$$$$$$$$$$$$$$$$$$$$$$$$$$$$$$$$$$$$$$$$$$$$$$$$$$$$$$",
"X@$.OOOOOOOOOOOOOOOOOOOOOOOOOOOOOOOOOOOOOOOOOOOOOOOOOOOOOOOOOOOO",
"X@$                                                             ",
"X@$O$$$$$$$$$$$$$$$$$$$$$$$$$$$$$$$$$$$$$$$$$$$$$$$$$$$$$$$$$$$$",
"X@$.OOOOOOOOOOOOOOOOOOOOOOOOOOOOOOOOOOOOOOOOOOOOOOOOOOOOOOOOOOOO",
"X@$O+########@@+ooooo+@#######@@+oooooooo++@####@@++OOooooooooo+",
"X@$Oo+#########@+ooooo+@#########@+ooooooo++@#######@@+Ooooooooo",
"X@$Ooo+#########@+ooooo+@#########@+ooooooo++@#########@+Ooooooo",
"X@$Oo+#########@+ooooo+@#######@@+ooooooo++@#########@@+Oooooooo",
"X@$O+#######@@+oooooo+@#####@@++ooooooo++@#######@@++OOoooooooo+",
"X@$O$$$$$$$$$$$$$$$$$$$$$$$$$$$$$$$$$$$$$$$$$$$$$$$$$$$$$$$$$$$$",
"X@$.OOOOOOOOOOOOOOOOOOOOOOOOOOOOOOOOOOOOOOOOOOOOOOOOOOOOOOOOOOOO",
"X@$                                                             ",
"X@$O$$$$$$$$$$$$$$$$$$$$$$$$$$$$$$$$$$$$$$$$$$$$$$$$$$$$$$$$$$$$",
"X@$.OOOOOOOOOOOOOOOOOOOOOOOOOOOOOOOOOOOOOOOOOOOOOOOOOOOOOOOOOOOO",
"X@$O############@@++ooooooOO+@@#####@@++ooooooOO+@########@@++oo",
"X@$Ooooooooo++#####@@+ooooooooO+@######@@++ooooooO+@########@@+o",
"X@$O##@@@++oooo++#####@+ooooooooO+@#######@@+ooooooO@#########@+",
"X@$O$$$$$$$$$$$$$$$$$$$$$$$$$$$$$$$$$$$$$$$$$$$$$$$$$$$$$$$$$$$$",
"X@$.OOOOOOOOOOOOOOOOOOOOOOOOOOOOOOOOOOOOOOOOOOOOOOOOOOOOOOOOOOOO",
"X@$                                                             ",
"X@$O$$$$$$$$$$$$$$$$$$$$$$$$$$$$$$$$$$$$$$$$$$$$$$$$$$$$$$$$$$$$",
"X@$.OOOOOOOOOOOOOOOOOOOOOOOOOOOOOOOOOOOOOOOOOOOOOOOOOOOOOOOOOOOO",
"X@$Ooooooooooooooooooooooooooooooooooooooooooooooooooooooooooo++",
"X@$Oooooooooooooooooooooooooooooooooooooooooooooooooo++@@@#####+",
"X@$O@@@@@@@@@@@@@@@@@@@@@@@@@@@@@@@@@@@@@++oooooooooooooooo+@@#+",
"X@$OooooooooooooooooooooooooooooOO+++@@########@@++ooooooooooo@+",
"X@$O@@@@@@@@@@@@@@@@@@@@+OOooooooooooooooooO+@@#####@@+oooooooo+",
"X@$OoooooooooooooooOOO+++@@#####@@+OOoooooooooooO+@@#####@+ooooo",
"X@$O###@@++OOooooooooooooooO++@@######@@+OooooooooooO+@@###@+ooo",
"X@$O#########@@@++OOooooooooooooO++########@+OoooooooooOO###@+oo",
"X@$OoOO+@###########@@++OoooooooooOO+########@+OoooooooooO###@+o",
"X@$OooooO+@############@+Oooooooooooo+########@OooooooooO@##@+oo",
"X@$Ooooooo+@@##########@+OoooooooooO+########@OoooooooOO@###+ooo",
"X@$OooOO+@#########@@++OOooooooooO+@#######@+OoooooOO+@##@+ooooo",
"X@$O+@#########@@++OOooooooooooO+@#####@@+OoooooOO+@##@@+oooooo+",
"X@$O$$$$$$$$$$$$$$$$$$$$$$$$$$$$$$$$$$$$$$$$$$$$$$$$$$$$$$$$$$$$",
"X@$.OOOOOOOOOOOOOOOOOOOOOOOOOOOOOOOOOOOOOOOOOOOOOOOOOOOOOOOOOOOO",
"X@$                                                             ",
"X@$O$$$$$$$$$$$$$$$$$$$$$$$$$$$$$$$$$$$$$$$$$$$$$$$$$$$$$$$$$$$$",
"X@$.OOOOOOOOOOOOOOOOOOOOOOOOOOOOOOOOOOOOOOOOOOOOOOOOOOOOOOOOOOOO",
"X@$O#+OOoooO###+OOoooooOO@@+OOooooooooOO++@@+OOooooooooooOO@@@@+",
"X@$O####+OooOO#####+OOoooooOO@@+OOoooooooOO+@@@@@@@++OOoooooOOO+",
"X@$O#####+OoooOO+#####Ooooooooo@@@+OoooooooOO+@@####@@++Ooooooo+",
"X@$O###@+oooooo#######+OooooooooOO@+OoooooooOO++#####@@+Ooooooo+",
"X@$O@@+OoOoooO####@@+OOoooooooOO@@+OoooooooOO+@@##@@+OOoooooooo+",
"X@$OooooooOO####@@+OoooooooOO@@+OOoooooooOO+@@@@@+OOooooooooOO++",
"X@$OoooO@@##@@+OooooooOOO@@@+OOooooooooOO@@@@+OOoooooooooOO++@@+"
};
